<svg width="1600" height="900" viewBox="0 0 1600 900" fill="none" xmlns="http://www.w3.org/2000/svg">
  <rect width="1600" height="900" fill="#070707"/>

  <g stroke="#171717" stroke-width="1.5">
    <line x1="260" y1="250" x2="1340" y2="250"/>
    <line x1="260" y1="610" x2="1340" y2="610"/>
    <line x1="260" y1="430" x2="1340" y2="430"/>
    <line x1="300" y1="200" x2="300" y2="660"/>
    <line x1="500" y1="200" x2="500" y2="660"/>
    <line x1="730" y1="200" x2="730" y2="660"/>
    <line x1="980" y1="200" x2="980" y2="660"/>
    <line x1="1100" y1="200" x2="1100" y2="660"/>
    <line x1="1290" y1="200" x2="1290" y2="660"/>
  </g>

  <g fill="#6C6A65" font-family="Helvetica Neue, Arial, sans-serif" font-size="18" letter-spacing="4">
    <text x="86" y="92">LOOM / WORDMARK PREVIEW 02</text>
  </g>

  <g stroke="#F0ECE2" stroke-width="15" stroke-linecap="round" stroke-linejoin="round" fill="none">
    <!-- L -->
    <path d="M315 250V610H458" />

    <!-- O1: slightly less resolved / subtle opening -->
    <path d="M560 336
             C 609 274 696 268 752 325
             C 804 379 809 485 761 545
             C 710 608 616 612 560 554
             C 511 504 506 396 552 342" />

    <!-- O2: absorbed / rewritten / more settled -->
    <path d="M802 330
             C 851 276 930 271 983 315
             C 1012 340 1028 383 1028 431
             L 1028 493
             C 1028 546 1007 585 968 607
             C 914 638 842 629 795 579
             C 752 533 738 468 747 409
             C 755 372 772 348 802 330" />

    <!-- M -->
    <path d="M1102 610V250L1196 364L1290 250V610" />
  </g>

  <g stroke="#2A2A2A" stroke-width="1.5">
    <line x1="300" y1="720" x2="1300" y2="720"/>
  </g>

  <g fill="#7A7770" font-family="Helvetica Neue, Arial, sans-serif" font-size="20" letter-spacing="3">
    <text x="303" y="775">UNIFIED INDUSTRIAL SKELETON</text>
    <text x="303" y="812">THE SECOND O IS QUIETLY REWRITTEN RATHER THAN DECORATIVELY CONNECTED.</text>
  </g>
</svg>
