<svg xmlns="http://www.w3.org/2000/svg" viewBox="0 0 512 512">
  <defs>
    <linearGradient id="bg" x1="0" y1="0" x2="1" y2="1">
      <stop offset="0" stop-color="#111a36" />
      <stop offset="0.52" stop-color="#28489d" />
      <stop offset="1" stop-color="#7352d2" />
    </linearGradient>
    <radialGradient id="ambientTop" cx="28%" cy="18%" r="52%">
      <stop offset="0" stop-color="#ffffff" stop-opacity="0.26" />
      <stop offset="1" stop-color="#ffffff" stop-opacity="0" />
    </radialGradient>
    <radialGradient id="ambientBottom" cx="78%" cy="82%" r="54%">
      <stop offset="0" stop-color="#c4b2ff" stop-opacity="0.24" />
      <stop offset="1" stop-color="#c4b2ff" stop-opacity="0" />
    </radialGradient>
    <linearGradient id="glassPanel" x1="0" y1="0" x2="1" y2="1">
      <stop offset="0" stop-color="#ffffff" stop-opacity="0.24" />
      <stop offset="0.55" stop-color="#dbe4ff" stop-opacity="0.14" />
      <stop offset="1" stop-color="#ffffff" stop-opacity="0.1" />
    </linearGradient>
    <linearGradient id="glassStroke" x1="0" y1="0" x2="1" y2="1">
      <stop offset="0" stop-color="#ffffff" stop-opacity="0.42" />
      <stop offset="1" stop-color="#ffffff" stop-opacity="0.16" />
    </linearGradient>
    <linearGradient id="markStroke" x1="0" y1="0" x2="0" y2="1">
      <stop offset="0" stop-color="#ffffff" stop-opacity="1" />
      <stop offset="0.45" stop-color="#f6f8ff" stop-opacity="0.94" />
      <stop offset="1" stop-color="#dce8ff" stop-opacity="0.88" />
    </linearGradient>
    <clipPath id="clip">
      <rect width="512" height="512" rx="112" />
    </clipPath>
  </defs>

  <g clip-path="url(#clip)">
    <rect width="512" height="512" fill="url(#bg)" />
    <rect width="512" height="512" fill="url(#ambientTop)" />
    <rect width="512" height="512" fill="url(#ambientBottom)" />

    <rect x="74" y="162" width="364" height="188" rx="72" fill="url(#glassPanel)" stroke="url(#glassStroke)" stroke-width="3.5" />
    <path d="M118 196 C188 154 324 154 394 196" fill="none" stroke="#ffffff" stroke-opacity="0.18" stroke-width="12" stroke-linecap="round" />
    <path d="M110 210 C184 174 328 174 402 210" fill="none" stroke="#ffffff" stroke-opacity="0.08" stroke-width="8" stroke-linecap="round" />

    <g stroke="#ffffff" stroke-opacity="0.05" stroke-width="3" fill="none">
      <line x1="256" y1="170" x2="256" y2="342" />
    </g>

    <g stroke="url(#markStroke)" stroke-width="16" stroke-linecap="round" stroke-linejoin="round" fill="none">
      <path d="M 50 188 L 50 324 L 160 324" />
      <circle cx="210" cy="256" r="38" />
      <circle cx="322" cy="256" r="38" />
      <path d="M 398 324 L 398 188 L 436 284 L 474 188 L 474 324" />
    </g>

    <g fill="#ffffff">
      <circle cx="210" cy="256" r="4.5" />
      <circle cx="322" cy="256" r="4.5" />
    </g>
  </g>
</svg>
